/* XPM */
static char * C:\Users\Mari\Documents\Prolog\bitmaps\add_xpm[] = {
"16 16 5 1",
" 	c None",
".	c #000106",
"+	c #000000",
"@	c #FFFFFF",
"#	c #B50613",
"                ",
"   .....++..... ",
"   .@@@@@@@@@@. ",
"   .@...@##@.@. ",
"   .@@@@@##@@@. ",
"   .@.@######@. ",
"   .@@@######@. ",
"   .@@@@@##@@@. ",
" .......@##@@@. ",
" .@@@@@.@@@@@@. ",
" .@...@.@....@. ",
" .@@@@@.@@@@@@. ",
" .......@....@. ",
"   .@@@@@@@@@@. ",
"   ..........+. ",
"                "};
