/* XPM */
static char * C:\Users\Mari\Documents\Prolog\bitmaps\arrow_xpm[] = {
"16 16 5 1",
" 	c None",
".	c #002EF4",
"+	c #000106",
"@	c #000000",
"#	c #018900",
"....            ",
"...             ",
"..              ",
".               ",
"   +++++        ",
"   +@@          ",
"   +@@@         ",
"   + @@@        ",
"   +  @@@       ",
"       @@@      ",
"        @@@     ",
"         @@@    ",
"          @@  ##",
"             ###",
"            ####",
"            ####"};
