/* XPM */
static char * C:\Users\Mari\Documents\Prolog\bitmaps\clear_xpm[] = {
"16 16 34 1",
" 	c None",
".	c #000000",
"+	c #FFFFFF",
"@	c #470000",
"#	c #0B0000",
"$	c #4E0000",
"%	c #B80000",
"&	c #9B0000",
"*	c #0C0000",
"=	c #CD0000",
"-	c #C70000",
";	c #550000",
">	c #770000",
",	c #590000",
"'	c #4F0000",
")	c #790000",
"!	c #BE0000",
"~	c #960000",
"{	c #390000",
"]	c #B70000",
"^	c #BF0000",
"/	c #AE0000",
"(	c #540000",
"_	c #3A0000",
":	c #6C0000",
"<	c #5A0000",
"[	c #000106",
"}	c #220000",
"|	c #230000",
"1	c #6E0000",
"2	c #420000",
"3	c #AF0000",
"4	c #440000",
"5	c #5B0000",
"          ..    ",
"         .+..   ",
"        @#++..  ",
"       $%&*++.. ",
"      $%=-; ++..",
"     $%=->++ ++ ",
"    $%=->+ +, ++",
"   '%=->+ +)!~ .",
"  .{]->+ +)!^/( ",
" .++_:+ +)!^/<  ",
" [.++}++)!^/<   ",
"  [.++|1!^/<    ",
"   [.++23/<     ",
"    [.++45.     ",
"     [.+..      ",
"      [..       "};
