/* XPM */
static char * C:\Users\Mari\Documents\Prolog\bitmaps\clean_xpm[] = {
"16 16 5 1",
" 	c None",
".	c #000106",
"+	c #FFFFFF",
"@	c #9F0202",
"#	c #000000",
"  .+.@.         ",
" .+.@@@. ###    ",
"  .@@+@@.++##   ",
"   .@@+@@.+#+#  ",
"    #@@+@+.#++# ",
"    #.@@+.+#### ",
"    .+.+.+++++# ",
"    .++.++++++# ",
"    .+++++++++# ",
"    #+++++++++# ",
"    #+++++++++# ",
"    #+++++++++# ",
"    #+++++++++# ",
"    #+++++++++# ",
"    ########### ",
"                "};
