/* XPM */
static char * C:\Users\Mari\Documents\Prolog\bitmaps\complete_xpm[] = {
"16 16 6 1",
" 	c None",
".	c #0808EC",
"+	c #0000EB",
"@	c #000106",
"#	c #068B05",
"$	c #FEFF00",
"      ....      ",
"      .++.      ",
"      ....      ",
"    @@@  @@@    ",
"     @@  @@     ",
"    @ @  @ @    ",
"###@        @###",
"###          ###",
"###          ###",
"###@        @###",
"    @ @  @ @    ",
"     @@  @@     ",
"    @@@  @@@    ",
"      $$$$      ",
"      $$$$      ",
"      $$$$      "};
