/* XPM */
static char * C:\Documents and Settings\MARIA_DIPUTACION\Mis documentos\Prolog _ copias\Prolog2\bitmaps\edit_xpm[] = {
"16 16 7 1",
" 	c None",
".	c #060606",
"+	c #000106",
"@	c #0808EC",
"#	c #FFFFFF",
"$	c #FF8814",
"%	c #000000",
"                ",
"  .+++++++++ @  ",
"  .#########@@@ ",
"  .#.++++##@@@@@",
"  .#######@@@@@ ",
"  .#.++##@@@@@  ",
"  .#####@@@@@   ",
"  .#.+#$@@@@#.  ",
"  .####$$@@##.  ",
"  .####$$$###.  ",
"  .#.++####+#.  ",
"  .##########.  ",
"  .#.+++++++#.  ",
"  .##########.  ",
"  %++++++++++.  ",
"                "};
