/* XPM */
static char * C:\Users\Mari\Documents\Prolog\bitmaps\find_replace_xpm[] = {
"16 16 19 1",
" 	c None",
".	c #000106",
"+	c #061F53",
"@	c #FFFFFF",
"#	c #F7F7F8",
"$	c #F8F8F9",
"%	c #F9F9FA",
"&	c #EEEEF0",
"*	c #ECEDEF",
"=	c #0000EB",
"-	c #E6E6E9",
";	c #EAEAED",
">	c #E9E9EC",
",	c #E8E8EB",
"'	c #DDDEE3",
")	c #DEDFE3",
"!	c #DFE0E4",
"~	c #FF8814",
"{	c #000000",
"                ",
"  ....+++.....  ",
"  .@@+++++@@@.  ",
"  .@++@@@++@@.  ",
"  .++@#$%@++@.  ",
"  .++&...*++@.==",
"  .++-;>,,++@===",
"  .@++')!++@=== ",
"  .+++++++@===  ",
"  +++@+++@===.  ",
" +++@@@@~===@.  ",
"+++@@@@@~~=@@.  ",
"++.@{{{@~~~@@.  ",
"+ .@@@@@@@@@@.  ",
"  ............  ",
"                "};
