/* XPM */
static char * C:\Users\Mari\Documents\Prolog\bitmaps\help_xpm[] = {
"16 16 105 2",
"  	c None",
". 	c #FFFFFF",
"+ 	c #600000",
"@ 	c #670909",
"# 	c #B56363",
"$ 	c #B50613",
"% 	c #AC5757",
"& 	c #540707",
"* 	c #A75D5D",
"= 	c #A34E4E",
"- 	c #4E0000",
"; 	c #720F0F",
"> 	c #CA6060",
", 	c #3C0000",
"' 	c #9D2526",
") 	c #DD6363",
"! 	c #E38E8E",
"~ 	c #FAE2E2",
"{ 	c #E1C5C5",
"] 	c #270000",
"^ 	c #003244",
"/ 	c #7B383F",
"( 	c #DF8181",
"_ 	c #F7D5D5",
": 	c #E5C1C1",
"< 	c #3A0000",
"[ 	c #063F5F",
"} 	c #0808EC",
"| 	c #5B7BA9",
"1 	c #A13A3D",
"2 	c #C84444",
"3 	c #F8DDDD",
"4 	c #DB8686",
"5 	c #9F2C2C",
"6 	c #2D0000",
"7 	c #0F5289",
"8 	c #446892",
"9 	c #623B54",
"0 	c #A83D40",
"a 	c #CD696A",
"b 	c #FAE4E4",
"c 	c #E08E8E",
"d 	c #AB3F40",
"e 	c #763B3F",
"f 	c #1E0202",
"g 	c #000000",
"h 	c #105786",
"i 	c #2A73AE",
"j 	c #67739C",
"k 	c #8E4C54",
"l 	c #924848",
"m 	c #B4A2A2",
"n 	c #E8E8E8",
"o 	c #AEC1D1",
"p 	c #001921",
"q 	c #033650",
"r 	c #1562A3",
"s 	c #EBF2FC",
"t 	c #98B7E3",
"u 	c #396D9A",
"v 	c #4A7E4A",
"w 	c #184E35",
"x 	c #002E30",
"y 	c #2D7F4B",
"z 	c #14576A",
"A 	c #EFF4FC",
"B 	c #9EBDE7",
"C 	c #497BAC",
"D 	c #1B5A50",
"E 	c #3A8040",
"F 	c #5EA770",
"G 	c #A6CDB5",
"H 	c #2A4F4B",
"I 	c #033534",
"J 	c #068B05",
"K 	c #2D814B",
"L 	c #15576B",
"M 	c #185466",
"N 	c #3E7F45",
"O 	c #5BA46A",
"P 	c #98CFAB",
"Q 	c #EDF7F0",
"R 	c #335150",
"S 	c #003332",
"T 	c #87B99A",
"U 	c #FDFEFD",
"V 	c #BFE2CB",
"W 	c #154F3D",
"X 	c #002625",
"Y 	c #124734",
"Z 	c #3D8A56",
"` 	c #C5DACF",
" .	c #CCE9D6",
"..	c #72B38D",
"+.	c #1E6846",
"@.	c #002822",
"#.	c #000E0E",
"$.	c #002525",
"%.	c #185139",
"&.	c #44935C",
"*.	c #549971",
"=.	c #297450",
"-.	c #002D24",
";.	c #001211",
">.	c #001919",
"  . . . . . . . + + . . . . . . ",
". . . . . + @ # $ $ % & + . . . ",
". . + + * $ $ $ $ $ $ $ $ = - + ",
". . ; $ $ $ $ $ $ $ $ $ $ $ > , ",
". . ' $ $ $ $ $ $ $ $ ) ! ~ { ] ",
". ^ / $ $ $ $ $ $ ( _ . . . : < ",
"[ } | 1 $ $ $ $ 2 . . . 3 4 5 6 ",
"7 } } } 8 9 0 $ a b c d e f g g ",
"h } } } } } i j k l m n o p . . ",
"q r } } } } } . . . s t u v w g ",
". x y z } } } A B C D E F G H g ",
". I J J J K L M N O P Q . . R . ",
". S J J J J J J T . . . U V W g ",
". . X Y Z J J J ` .  ...+.@.#.g ",
". . . . . $.%.&.*.=.-.;.g . . . ",
". . . . . . . >.#.g g . . . . . "};
