/* XPM */
static char * C:\Users\Mari\Documents\Prolog\bitmaps\image_xpm[] = {
"16 16 52 1",
" 	c None",
".	c #0064AD",
"+	c #0064AF",
"@	c #00A3F3",
"#	c #009FF2",
"$	c #009DF1",
"%	c #009CF0",
"&	c #005695",
"*	c #0092E6",
"=	c #008CDF",
"-	c #0088DD",
";	c #0087E1",
">	c #004F8A",
",	c #000106",
"'	c #89CE00",
")	c #83C300",
"!	c #82C300",
"~	c #80C200",
"{	c #86C500",
"]	c #007CD4",
"^	c #0079CC",
"/	c #007BCE",
"(	c #007DD4",
"_	c #00487C",
":	c #6EB200",
"<	c #67AA00",
"[	c #66A900",
"}	c #63A700",
"|	c #65A700",
"1	c #007CC7",
"2	c #007DC8",
"3	c #0083CA",
"4	c #509100",
"5	c #4C8F00",
"6	c #4D9000",
"7	c #4E9200",
"8	c #509200",
"9	c #408100",
"0	c #448700",
"a	c #438700",
"b	c #FAEE00",
"c	c #F6E200",
"d	c #F5E000",
"e	c #FAE500",
"f	c #EBC000",
"g	c #F5D300",
"h	c #F1CB00",
"i	c #F1CC00",
"j	c #F6D300",
"k	c #E9C000",
"l	c #EABF00",
"m	c #EAC100",
"   ..+          ",
"  @#$%&         ",
"  *=-;>,  ')!~{ ",
"  ]^/(_ , :<[}| ",
"   123   ,45678 ",
"           90a  ",
"          ,     ",
"         ,      ",
"                ",
"       ')!~{    ",
"       :<[}|    ",
"       45678    ",
"bcdef   a0a     ",
"ghijf  ,        ",
"klfmf,,         ",
" lll            "};
