/* XPM */
static char * C:\Users\Mari\Documents\Prolog\bitmaps\new_xpm[] = {
"16 16 6 1",
" 	c None",
".	c #FEFF00",
"+	c #000106",
"@	c #000000",
"#	c #FFFF00",
"$	c #FFFFFF",
"                ",
"    .  ++@@@    ",
"  #   .$$$$@@   ",
"   # # $$$$@$@  ",
" .  #  .$$$@$$@ ",
"   . # $$$$@@@@ ",
"  .   .+@@$$$$@ ",
"    .$$$$$$$$$@ ",
"    +$@@@@@@@$@ ",
"    @$$$$$$$$$@ ",
"    @$@@@@@@@$@ ",
"    @$$$$$$$$$@ ",
"    @$@@@@@@@$@ ",
"    @$$$$$$$$$@ ",
"    @@@@@@@@@@@ ",
"                "};
