/* XPM */
static char * C:\Users\Mari\Documents\Prolog\bitmaps\node_xpm[] = {
"16 16 108 2",
"  	c None",
". 	c #5EA21C",
"+ 	c #64B415",
"@ 	c #65BA13",
"# 	c #64B813",
"$ 	c #62B016",
"% 	c #5D9C21",
"& 	c #5D9924",
"* 	c #69C114",
"= 	c #73D216",
"- 	c #71CF16",
"; 	c #6CC814",
"> 	c #69C113",
", 	c #65BC11",
"' 	c #64BC0F",
") 	c #62B513",
"! 	c #5E9A24",
"~ 	c #6ECA14",
"{ 	c #73D217",
"] 	c #73D116",
"^ 	c #70CE16",
"/ 	c #6CC813",
"( 	c #69C013",
"_ 	c #65BB10",
": 	c #60B50E",
"< 	c #5DAF0D",
"[ 	c #62B710",
"} 	c #6BC314",
"| 	c #73D117",
"1 	c #64BB10",
"2 	c #5CAF0D",
"3 	c #59A90B",
"4 	c #61B113",
"5 	c #60A71C",
"6 	c #59A80B",
"7 	c #5BAE0B",
"8 	c #5D9528",
"9 	c #66B916",
"0 	c #55A40A",
"a 	c #5FA81A",
"b 	c #69C014",
"c 	c #64BB11",
"d 	c #54A30A",
"e 	c #5FAD14",
"f 	c #6EC21B",
"g 	c #76D21B",
"h 	c #60B60F",
"i 	c #5CAE0D",
"j 	c #58A90A",
"k 	c #54A309",
"l 	c #5FAC14",
"m 	c #6ABA1C",
"n 	c #83D730",
"o 	c #76D21C",
"p 	c #60B50F",
"q 	c #62B115",
"r 	c #64AF1C",
"s 	c #60AB1A",
"t 	c #60A71B",
"u 	c #5FA31E",
"v 	c #82D72D",
"w 	c #83D631",
"x 	c #7CD425",
"y 	c #75D21A",
"z 	c #70CD15",
"A 	c #6CC713",
"B 	c #69C213",
"C 	c #6BBE1A",
"D 	c #70BD26",
"E 	c #6FB829",
"F 	c #6CB328",
"G 	c #6AB621",
"H 	c #5C902A",
"I 	c #70C41D",
"J 	c #84D732",
"K 	c #7FD32C",
"L 	c #7ACC2B",
"M 	c #79C82C",
"N 	c #77C42C",
"O 	c #73BD2A",
"P 	c #6FB928",
"Q 	c #6CB428",
"R 	c #65B21B",
"S 	c #5C9129",
"T 	c #76CC21",
"U 	c #81D330",
"V 	c #7DCD2E",
"W 	c #7AC82D",
"X 	c #76C42B",
"Y 	c #70B929",
"Z 	c #69BA1A",
"` 	c #5A7F37",
" .	c #5B8E2B",
"..	c #6DC11C",
"+.	c #80D62B",
"@.	c #81D530",
"#.	c #7ECE2F",
"$.	c #7BC92E",
"%.	c #77C52C",
"&.	c #72C324",
"*.	c #66B41A",
"=.	c #5A8036",
"-.	c #5C9823",
";.	c #65B01C",
">.	c #69B91C",
",.	c #67B71B",
"'.	c #62AB1C",
").	c #5B9128",
"                                ",
"          . + @ # $ %           ",
"      & * = - ; > , ' )         ",
"    ! ~ { ] ^ / ( _ : < [       ",
"    } { | ] ^ / > 1 : 2 3 4     ",
"  5 = | | ] ^ / > 1 : 2 6 7 8   ",
"  9 { | | ] ^ / > 1 : 2 3 0 a   ",
"  b { | | ] ^ / > c : 2 3 d e   ",
"  f g | | ] ^ / > 1 h i j k l   ",
"  m n o ] | ^ / > 1 p q r s t   ",
"  u v w x y z A B C D E F G H   ",
"    I J w w K L M N O P Q R     ",
"    S T J w U V W X O Y Z `     ",
"       ...+.@.#.$.%.&.*.=.      ",
"          -.;.>.,.'.).          ",
"                                "};
