/* XPM */
static char * C:\Users\Mari\Documents\Prolog\bitmaps\normalize_xpm[] = {
"16 16 4 1",
" 	c None",
".	c #000106",
"+	c #018900",
"@	c #72EF00",
"                ",
"             ...",
"            .+@.",
"           .+@+.",
"          .+@+. ",
"..       .+@+.  ",
".+.     .+@+.   ",
".@+.   .+@+.    ",
".@@+...+@+.     ",
".+@@+++@+.      ",
" .+@@@@+.       ",
"  .+@@+.        ",
"   .++.         ",
"    ..          ",
"                ",
"                "};
