/* XPM */
static char * C:\Users\Mari\Documents\Prolog\bitmaps\quit_xpm[] = {
"16 16 71 1",
" 	c None",
".	c #000000",
"+	c #001520",
"@	c #004D77",
"#	c #003F60",
"$	c #00324E",
"%	c #00273B",
"&	c #001F2F",
"*	c #001B2A",
"=	c #000C12",
"-	c #002437",
";	c #00A3FB",
">	c #00A3FA",
",	c #00A2FA",
"'	c #00A2F8",
")	c #00A2F9",
"!	c #00141F",
"~	c #0099EB",
"{	c #00A1F7",
"]	c #001521",
"^	c #001924",
"/	c #FFFFFF",
"(	c #003651",
"_	c #0099EA",
":	c #00A1F8",
"<	c #00A1F6",
"[	c #001621",
"}	c #001E2C",
"|	c #001D2A",
"1	c #003652",
"2	c #00A0F5",
"3	c #003753",
"4	c #0098E8",
"5	c #0078B7",
"6	c #001622",
"7	c #E70000",
"8	c #E80000",
"9	c #E90000",
"0	c #EA0000",
"a	c #0097E7",
"b	c #0077B7",
"c	c #001723",
"d	c #E40000",
"e	c #E50000",
"f	c #E60000",
"g	c #004264",
"h	c #009FF4",
"i	c #001623",
"j	c #E20000",
"k	c #E30000",
"l	c #004365",
"m	c #009FF3",
"n	c #001724",
"o	c #E00000",
"p	c #E10000",
"q	c #003754",
"r	c #009FF2",
"s	c #001824",
"t	c #003855",
"u	c #0097E6",
"v	c #009EF2",
"w	c #002639",
"x	c #003955",
"y	c #002D45",
"z	c #002335",
"A	c #001E2E",
"B	c #000C13",
"C	c #001823",
"D	c #001B26",
"E	c #000304",
"F	c #001E2D",
"                ",
"     .......... ",
"     .+@#$%&*=. ",
"     .-;>,,')+. ",
"     !&~>'){{]. ",
"     ^/(_{{:<[. ",
"}}}}}|//1_<<2]. ",
"}////// /34256. ",
"}/778890 /1abc. ",
"}/deeff78 /ghi. ",
"}/jjkkdde /lmn. ",
"}/oppppj /qars. ",
"}////// /tuvrs. ",
"}}}}}|//wxyzAB. ",
"     C/DE...... ",
"     }F}        "};
