/* XPM */
static char * C:\Users\Felix\Desktop\TFG_FMC\LatticeMaker Prolog\bitmaps\restore_leq_xpm[] = {
"16 16 9 1",
" 	c None",
".	c #FFFFFF",
"+	c #FBFBFB",
"@	c #FDFDFD",
"#	c #000106",
"$	c #F9F9F9",
"%	c #0000EB",
"&	c #F7F7F7",
"*	c #000000",
"................",
"..............+@",
".....######....$",
"....#%%%%%%#...&",
"...#%%%%%%%%#...",
"..#%%#####%%%#..",
"..#%%#....#%%#..",
"#%%%%%%#...#%#..",
".#%%%%#....#%#..",
"..#%%#.....#%#..",
"...##.......#...",
".*....****.****.",
".*....*....*..*.",
".*....***..*..*.",
".*....*....*.**.",
".****.****.*****"};
