/* XPM */
static char * C:\Documents and Settings\MARIA_DIPUTACION\Mis documentos\Prolog\bitmaps\sendup_xpm[] = {
"16 16 5 1",
" 	c None",
".	c #FFFFFF",
"+	c #067106",
"@	c #060606",
"#	c #006E00",
".......++.......",
"..@@@@++++@@@@..",
"..@..+++++#..@..",
"..@.++++++++.@..",
"..@++++++++++@..",
"..++++++++++++..",
".++++++++++++++.",
"++++++++++++++++",
"++++++++++++++++",
"..@.@@@......@..",
"..@..........@..",
"..@.@@@@.@@..@..",
"..@..........@..",
"..@.@@@@@@@@.@..",
"..@..........@..",
"..@@@@@@@@@@@@.."};
