/* XPM */
static char * C:\Users\Javier\Dropbox\Actual\TFG\LatticeMaker\bitmaps\switch_xpm[] = {
"16 16 17 1",
" 	c None",
".	c #007CDB",
"+	c #0079DF",
"@	c #1D9BAF",
"#	c #58DB52",
"$	c #56D956",
"%	c #0078E1",
"&	c #3DBF7B",
"*	c #55D855",
"=	c #55D955",
"-	c #55D856",
";	c #007BDC",
">	c #0F8CC3",
",	c #5BDE4F",
"'	c #0078E0",
")	c #30B08F",
"!	c #59DD51",
"                ",
"                ",
"    .+@#$       ",
"  ...%&$$$*     ",
"   ...   $$*    ",
"  ....    $$    ",
"  .        $$   ",
" ..        $$   ",
" ..        $$   ",
" ..        $    ",
"  ..    =$$$    ",
"  ...   -$$     ",
"   ...;>,$$$    ",
"     .')!=      ",
"                ",
"                "};
