/* XPM */
static char * C:\Users\Mari\Documents\Prolog\bitmaps\undo_xpm[] = {
"16 16 9 1",
" 	c #FFFFFF",
".	c #FBFBFB",
"+	c #FDFDFD",
"@	c #000106",
"#	c #F9F9F9",
"$	c #0000EB",
"%	c #F7F7F7",
"&	c #005000",
"*	c #067106",
"                ",
"              .+",
"     @@@@@@    #",
"    @$$$$$$@   %",
"   @$$$$$$$$@   ",
"  @$$@@@@@$$$@  ",
"  @$$@    @$$@  ",
"@$$$$$$@   @$@  ",
" @$$$$@    @$@  ",
"  @$$@ &&  @$@  ",
"   @@ ****  @   ",
"     ******     ",
"    ********   +",
"   **********   ",
"  ************  ",
"                "};
