/* XPM */
static char * C:\Users\Mari\Documents\Prolog\bitmaps\xml_xpm[] = {
"16 16 4 1",
" 	c None",
".	c #000106",
"+	c #FFFFFF",
"@	c #0000EB",
"                ",
"  ............  ",
"  .++++++++++.  ",
"  .+.......++.  ",
"  .++++++++++.  ",
"  .+....++..+.  ",
"  .++++++++++.  ",
"  .+..+.....+.  ",
"  .++++++++++.  ",
"@@@@@@@@@@@@@@@@",
"@+@@+@++@++@+@@@",
"@@++@@+@+@+@+@@@",
"@@++@@+@@@+@+@@@",
"@+@@+@+@@@+@+++@",
"@@@@@@@@@@@@@@@@",
"                "};
